<svg width="30" height="31" viewBox="0 0 30 31" fill="none" xmlns="http://www.w3.org/2000/svg">
<path d="M15 17C16.933 17 18.5 15.433 18.5 13.5C18.5 11.567 16.933 10 15 10C13.067 10 11.5 11.567 11.5 13.5C11.5 15.433 13.067 17 15 17Z" fill="#FFFF"/>
<path d="M27.0001 12C26.3812 12.0017 25.7779 12.1949 25.2731 12.5529C24.7682 12.911 24.3864 13.4165 24.1801 14H22.9301C22.709 12.2382 21.908 10.6 20.6533 9.34351C19.3987 8.08703 17.7616 7.28367 16.0001 7.06V5.82C16.6673 5.58411 17.2297 5.11994 17.5878 4.50952C17.9458 3.89911 18.0766 3.18177 17.9569 2.48427C17.8372 1.78678 17.4749 1.15404 16.9338 0.697899C16.3927 0.241757 15.7078 -0.00842285 15.0001 -0.00842285C14.2924 -0.00842285 13.6075 0.241757 13.0665 0.697899C12.5254 1.15404 12.163 1.78678 12.0433 2.48427C11.9237 3.18177 12.0544 3.89911 12.4125 4.50952C12.7706 5.11994 13.3329 5.58411 14.0001 5.82V7.06C12.2386 7.28367 10.6016 8.08703 9.34692 9.34351C8.09225 10.6 7.29126 12.2382 7.07013 14H5.82013C5.58423 13.3328 5.12006 12.7704 4.50965 12.4124C3.89924 12.0543 3.18189 11.9235 2.48439 12.0432C1.7869 12.1629 1.15416 12.5253 0.698021 13.0663C0.241879 13.6074 -0.00830078 14.2923 -0.00830078 15C-0.00830078 15.7077 0.241879 16.3926 0.698021 16.9337C1.15416 17.4747 1.7869 17.8371 2.48439 17.9568C3.18189 18.0765 3.89924 17.9457 4.50965 17.5876C5.12006 17.2296 5.58423 16.6672 5.82013 16H7.07013C7.17793 16.8695 7.43148 17.7147 7.82013 18.5C8.33606 17.4429 9.08071 16.5138 10.0001 15.78C9.66923 15.0655 9.49858 14.2874 9.50013 13.5C9.5036 12.2155 9.95491 10.9725 10.7763 9.98499C11.5977 8.99749 12.7378 8.32735 14.0001 8.09C14.6612 7.96755 15.3391 7.96755 16.0001 8.09C17.2625 8.32735 18.4025 8.99749 19.2239 9.98499C20.0453 10.9725 20.4966 12.2155 20.5001 13.5C20.5017 14.2874 20.331 15.0655 20.0001 15.78C20.9195 16.5138 21.6642 17.4429 22.1801 18.5C22.5688 17.7147 22.8223 16.8695 22.9301 16H24.1801C24.3636 16.5189 24.6862 16.9773 25.1128 17.3251C25.5393 17.6729 26.0533 17.8966 26.5985 17.9718C27.1437 18.0471 27.6991 17.9709 28.2038 17.7516C28.7086 17.5323 29.1434 17.1784 29.4605 16.7286C29.7776 16.2788 29.9649 15.7504 30.0018 15.2013C30.0387 14.6522 29.9239 14.1035 29.6699 13.6153C29.4158 13.1271 29.0324 12.7181 28.5615 12.4332C28.0906 12.1483 27.5505 11.9985 27.0001 12Z" fill="#FFFF"/>
<path d="M25.1803 24.88C24.7413 24.4432 24.1779 24.153 23.5673 24.0491C22.9568 23.9453 22.3291 24.0329 21.7703 24.3L19.2303 21.76C19.8069 21.4072 20.3348 20.9802 20.8003 20.49C20.4863 19.2909 19.8086 18.2184 18.8603 17.42C17.8301 18.4314 16.444 18.9981 15.0003 18.9981C13.5566 18.9981 12.1706 18.4314 11.1403 17.42C10.1921 18.2184 9.51433 19.2909 9.20032 20.49C9.67581 20.9901 10.2135 21.427 10.8003 21.79L8.28032 24.31C7.72138 24.0551 7.09897 23.9732 6.4931 24.0748C5.88723 24.1764 5.32558 24.4568 4.88032 24.88C4.48936 25.2675 4.21255 25.7551 4.0802 26.2895C3.94784 26.8238 3.96505 27.3842 4.12993 27.9094C4.29481 28.4346 4.60101 28.9043 5.01501 29.2671C5.42901 29.6298 5.93484 29.8717 6.47713 29.9662C7.01942 30.0607 7.57725 30.0042 8.08957 29.8029C8.60188 29.6015 9.04891 29.2631 9.38173 28.8246C9.71455 28.3862 9.92032 27.8646 9.97652 27.317C10.0327 26.7694 9.93716 26.217 9.70032 25.72L12.7503 22.72C14.2331 23.1735 15.8175 23.1735 17.3003 22.72L20.3603 25.79C20.1235 26.287 20.0279 26.8394 20.0841 27.387C20.1403 27.9346 20.3461 28.4562 20.6789 28.8946C21.0117 29.3331 21.4588 29.6715 21.9711 29.8729C22.4834 30.0742 23.0412 30.1307 23.5835 30.0362C24.1258 29.9417 24.6316 29.6998 25.0456 29.3371C25.4596 28.9743 25.7658 28.5046 25.9307 27.9794C26.0956 27.4542 26.1128 26.8938 25.9805 26.3595C25.8481 25.8251 25.5713 25.3375 25.1803 24.95V24.88Z" fill="#FFFF"/>
</svg>
