<svg width="275" height="48" viewBox="0 0 275 48" fill="none" xmlns="http://www.w3.org/2000/svg">
<path d="M12.75 13.7578L13.2891 31.7812L37.0312 14.1562L12.75 13.7578ZM11.625 11.7422L12.5625 7.17188L12.7031 11.5781L41.9297 6.9375L47.7891 14.5312L4.94531 44.2734L11.2266 13.7344L0.28125 13.5469L11.625 11.7422ZM52.0078 29.1562L85.0547 47.5547L43.4062 33.0703L37.5469 25.4766L76.7109 4.96875L79.2891 11.9297L74.2734 14.8828L72.9141 12.8438L52.125 24L72.6797 26.1328L52.0078 29.1562ZM68.5312 5.8125L84.8203 30.1875L108.305 5.8125L120.68 0.796875L82.8516 42.9141L68.5312 5.8125ZM135.586 11.5781L130.805 14.3906L129.703 12.3047L108.773 22.2188L134.484 26.625L135.211 33.6094L99.4688 44.3906L124.57 30.9141L99.5859 26.0156L102.633 19.2891L133.617 4.71094L135.586 11.5781ZM144.562 26.8828L169.828 16.2422L146.203 11.5781L144.562 26.8828ZM144.445 27.9141L142.875 42.5625L135.164 37.0312L141.305 8.27344L147.773 5.69531L178.031 12.5625L179.016 18.5625L144.445 27.9141ZM190.312 31.4531L186.234 15.2344L167.953 32.7422L190.312 31.4531ZM190.359 31.6875L163.219 40.1016L157.828 34.2188L188.719 5.4375L198.586 36.6797L194.18 46.8281L190.359 31.6875ZM237.117 4.96875L239.695 11.9297L234.68 14.8828L233.32 13.7812L208.711 32.8828L245.461 33.4922L203.812 40.1016L197.953 32.5078L237.117 4.96875ZM241.055 29.1562L274.102 47.5547L232.453 33.0703L226.594 25.4766L265.758 4.96875L268.336 11.9297L263.32 14.8828L261.961 12.8438L241.172 24L261.727 26.1328L241.055 29.1562Z" fill="white"/>
</svg>
