<svg width="43" height="39" viewBox="0 0 43 39" fill="none" xmlns="http://www.w3.org/2000/svg">
<path d="M23.2761 21.2712C26.2446 21.2712 28.651 23.652 28.651 26.589L28.6482 29.2421C29.0168 35.753 23.9482 39 14.5488 39C5.17968 39 0 35.7955 0 29.335V26.589C0 23.652 2.40642 21.2712 5.3749 21.2712H23.2761ZM37.6114 21.2712C40.5798 21.2712 42.9863 23.652 42.9863 26.589L42.9836 28.4558C43.3075 34.2963 38.8289 37.2245 30.6426 37.2245C29.5314 37.2245 28.4867 37.171 27.5111 37.0638C29.4343 35.3067 30.463 32.9223 30.4595 29.9093L30.4371 29.1429L30.4427 26.589C30.4427 24.4705 29.5036 22.569 28.0148 21.2697L37.6114 21.2712ZM14.3331 0C19.2813 0 23.2927 3.96874 23.2927 8.86442C23.2927 13.7601 19.2813 17.7288 14.3331 17.7288C9.38481 17.7288 5.37345 13.7601 5.37345 8.86442C5.37345 3.96874 9.38481 0 14.3331 0ZM32.2494 3.54519C36.2074 3.54519 39.4159 6.71967 39.4159 10.6356C39.4159 14.5515 36.2074 17.726 32.2494 17.726C28.2914 17.726 25.0829 14.5515 25.0829 10.6356C25.0829 6.71967 28.2914 3.54519 32.2494 3.54519Z" fill="#FFFF"/>
</svg>
