<svg width="18" height="24" viewBox="0 0 18 24" fill="none" xmlns="http://www.w3.org/2000/svg">
<path d="M3.70002 6.20002C5.20002 6.20002 6.40002 4.90002 6.40002 3.30002C6.40002 1.70002 5.20002 0.400024 3.70002 0.400024C2.20002 0.400024 1.00002 1.80002 1.00002 3.40002C1.00002 4.90002 2.20002 6.20002 3.70002 6.20002ZM14.4 6.20002C15.9 6.20002 17.1 4.90002 17.1 3.30002C17.1 1.70002 15.9 0.400024 14.4 0.400024C12.9 0.400024 11.7 1.70002 11.7 3.30002C11.7 4.90002 12.9 6.20002 14.4 6.20002ZM16.8 7.60002C16.6 7.50002 16.4 7.60002 16.3 7.70002C14.1 10.2 11.8 11.4 9.30002 11.4C5.10002 11.4 1.80002 7.70002 1.80002 7.70002C1.70002 7.60002 1.50002 7.50002 1.30002 7.60002C1.10002 7.70002 1.00002 7.80002 1.00002 8.00002C0.800022 14.6 1.00002 22.7 1.00002 22.8C1.00002 23 1.10002 23.2 1.40002 23.3C1.80002 23.4 2.30002 23.4 2.90002 23.4C4.10002 23.4 5.40002 23.2 5.50002 23.2C5.70002 23.2 5.90002 23 5.90002 22.7C6.00002 19.3 6.00002 16.2 5.90002 14.8C6.90002 15.2 8.00002 15.4 9.00002 15.4C10.4 15.4 11.4 15.1 12.1 14.8C11.9 21.3 12 22.7 12 22.8C12 23 12.1 23.1 12.3 23.2C12.6 23.4 13.2 23.4 14 23.4C15.2 23.4 16.6 23.2 16.7 23.2C16.9 23.2 17.1 23 17.1 22.7V7.90002C17.1 7.80002 17 7.70002 16.8 7.60002Z" fill="#FFFF"/>
</svg>
