<svg width="20" height="20" viewBox="0 0 20 20" fill="none" xmlns="http://www.w3.org/2000/svg">
<path d="M19 0H1C0.734784 0 0.48043 0.105357 0.292893 0.292893C0.105357 0.48043 0 0.734784 0 1V19C0 19.2652 0.105357 19.5196 0.292893 19.7071C0.48043 19.8946 0.734784 20 1 20H19C19.2652 20 19.5196 19.8946 19.7071 19.7071C19.8946 19.5196 20 19.2652 20 19V1C20 0.734784 19.8946 0.48043 19.7071 0.292893C19.5196 0.105357 19.2652 0 19 0ZM18 18H2V2H18V18Z" fill="#FFFF"/>
<path d="M13.64 13.63C13.8733 13.118 13.996 12.5626 14 12C14 11.2089 13.7654 10.4355 13.3259 9.77772C12.8864 9.11992 12.2616 8.60723 11.5307 8.30448C10.7998 8.00173 9.99556 7.92252 9.21964 8.07686C8.44371 8.2312 7.73098 8.61216 7.17157 9.17157C6.61216 9.73098 6.2312 10.4437 6.07686 11.2196C5.92252 11.9956 6.00173 12.7998 6.30448 13.5307C6.60723 14.2616 7.11992 14.8864 7.77772 15.3259C8.43552 15.7654 9.20887 16 10 16C10.8632 15.995 11.7016 15.7108 12.39 15.19L14.39 16.78C14.4919 16.867 14.6102 16.9326 14.7379 16.973C14.8656 17.0134 15.0001 17.0277 15.1335 17.0151C15.2668 17.0025 15.3963 16.9632 15.5142 16.8996C15.6321 16.836 15.736 16.7494 15.8197 16.6448C15.9035 16.5403 15.9654 16.42 16.0018 16.2911C16.0382 16.1622 16.0483 16.0273 16.0315 15.8944C16.0147 15.7615 15.9714 15.6333 15.9042 15.5174C15.8369 15.4016 15.7471 15.3005 15.64 15.22L13.64 13.63ZM10 14C9.60444 14 9.21776 13.8827 8.88886 13.6629C8.55996 13.4432 8.30362 13.1308 8.15224 12.7654C8.00087 12.3999 7.96126 11.9978 8.03843 11.6098C8.1156 11.2219 8.30608 10.8655 8.58579 10.5858C8.86549 10.3061 9.22186 10.1156 9.60982 10.0384C9.99778 9.96126 10.3999 10.0009 10.7654 10.1522C11.1308 10.3036 11.4432 10.56 11.6629 10.8889C11.8827 11.2178 12 11.6044 12 12C12 12.5304 11.7893 13.0391 11.4142 13.4142C11.0391 13.7893 10.5304 14 10 14ZM4 6H5C5.26522 6 5.51957 5.89464 5.70711 5.70711C5.89464 5.51957 6 5.26522 6 5C6 4.73478 5.89464 4.48043 5.70711 4.29289C5.51957 4.10536 5.26522 4 5 4H4C3.73478 4 3.48043 4.10536 3.29289 4.29289C3.10536 4.48043 3 4.73478 3 5C3 5.26522 3.10536 5.51957 3.29289 5.70711C3.48043 5.89464 3.73478 6 4 6ZM8 6H16C16.2652 6 16.5196 5.89464 16.7071 5.70711C16.8946 5.51957 17 5.26522 17 5C17 4.73478 16.8946 4.48043 16.7071 4.29289C16.5196 4.10536 16.2652 4 16 4H8C7.73478 4 7.48043 4.10536 7.29289 4.29289C7.10536 4.48043 7 4.73478 7 5C7 5.26522 7.10536 5.51957 7.29289 5.70711C7.48043 5.89464 7.73478 6 8 6Z" fill="#FFFF"/>
</svg>
