<svg width="24" height="31" viewBox="0 0 24 31" fill="none" xmlns="http://www.w3.org/2000/svg">
<path d="M23.8 21.0203V1.5003C23.8 0.970268 23.52 0.480278 23.06 0.210258C22.61 -0.0597018 22.05 -0.0697118 21.58 0.180288L8.26001 7.42028C7.78002 7.68029 7.48004 8.1903 7.48004 8.74029V21.0503C6.80005 20.7203 6.04004 20.5303 5.24005 20.5303C2.35004 20.5303 0 22.8803 0 25.7603C0 28.6503 2.35004 31.0003 5.24005 31.0003C8.02002 31.0003 10.29 28.8103 10.45 26.0703C10.47 25.9703 10.48 25.8703 10.48 25.7603V14.3903L20.8001 8.78026V16.3103C20.12 15.9803 19.3601 15.7903 18.56 15.7903C15.6701 15.7903 13.32 18.1403 13.32 21.0203C13.32 23.9103 15.6701 26.2603 18.56 26.2603C21.34 26.2603 23.6101 24.0703 23.77 21.3303C23.79 21.2303 23.8 21.1303 23.8 21.0203Z" fill="#FFFF"/>
</svg>
