<svg width="30" height="30" viewBox="0 0 30 30" fill="none" xmlns="http://www.w3.org/2000/svg">
<path d="M22.4795 14.7286V0.384224C22.4795 0.192112 22.2874 0 22.0953 0H0.386665C0.194554 0 0.00244141 0.192112 0.00244141 0.384224V26.5755C0.00244141 28.1764 1.28319 29.3931 2.82008 29.3931H23.6322C22.9278 28.6247 22.4795 27.6641 22.4795 26.5755V14.7286ZM2.56393 8.90118H9.80015C10.1844 8.90118 10.4405 9.15733 10.4405 9.54156C10.4405 9.92578 10.1844 10.1819 9.80015 10.1819H2.56393C2.17971 10.1819 1.92356 9.92578 1.92356 9.54156C1.92356 9.15733 2.17971 8.90118 2.56393 8.90118ZM1.92356 6.0195C1.92356 5.63528 2.17971 5.37913 2.56393 5.37913H9.80015C10.1844 5.37913 10.4405 5.63528 10.4405 6.0195C10.4405 6.40373 10.1844 6.65988 9.80015 6.65988H2.56393C2.17971 6.65988 1.92356 6.40373 1.92356 6.0195ZM2.56393 12.3592H9.80015C10.1844 12.3592 10.4405 12.6153 10.4405 12.9996C10.4405 13.3838 10.1844 13.6399 9.80015 13.6399H2.56393C2.17971 13.6399 1.92356 13.3838 1.92356 12.9996C1.92356 12.6153 2.17971 12.3592 2.56393 12.3592ZM2.56393 15.8172H9.80015C10.1844 15.8172 10.4405 16.0734 10.4405 16.4576C10.4405 16.8418 10.1844 17.098 9.80015 17.098H2.56393C2.17971 17.098 1.92356 16.8418 1.92356 16.4576C1.92356 16.0734 2.17971 15.8172 2.56393 15.8172ZM19.918 27.536H2.56393C2.17971 27.536 1.92356 27.2799 1.92356 26.8957C1.92356 26.5114 2.17971 26.2553 2.56393 26.2553H19.918C20.3023 26.2553 20.5584 26.5114 20.5584 26.8957C20.5584 27.2799 20.3023 27.536 19.918 27.536ZM19.918 24.078H2.56393C2.17971 24.078 1.92356 23.8219 1.92356 23.4376C1.92356 23.0534 2.17971 22.7973 2.56393 22.7973H19.918C20.3023 22.7973 20.5584 23.0534 20.5584 23.4376C20.5584 23.8219 20.3023 24.078 19.918 24.078ZM19.918 20.556H2.56393C2.17971 20.556 1.92356 20.2998 1.92356 19.9156C1.92356 19.5314 2.17971 19.2752 2.56393 19.2752H19.918C20.3023 19.2752 20.5584 19.5314 20.5584 19.9156C20.5584 20.2998 20.3023 20.556 19.918 20.556ZM20.5584 16.4576C20.5584 16.8418 20.3023 17.098 19.918 17.098H13.002C12.6178 17.098 12.3616 16.8418 12.3616 16.4576V6.0195C12.3616 5.63528 12.6178 5.37913 13.002 5.37913H19.918C20.3023 5.37913 20.5584 5.63528 20.5584 6.0195V16.4576ZM19.918 3.20186H2.56393C2.17971 3.20186 1.92356 2.94572 1.92356 2.56149C1.92356 2.17727 2.17971 1.92112 2.56393 1.92112H19.918C20.3023 1.92112 20.5584 2.17727 20.5584 2.56149C20.5584 2.94572 20.3023 3.20186 19.918 3.20186ZM23.7603 15.3689V26.6395C23.7603 28.2404 25.041 29.4572 26.5779 29.4572C28.1788 29.4572 29.3956 28.1764 29.3956 26.6395V15.3689H23.7603Z" fill="#FFFF"/>
</svg>
