<svg width="24" height="30" viewBox="0 0 24 30" fill="none" xmlns="http://www.w3.org/2000/svg">
<path d="M12.0005 29.5714C13.6505 29.5714 15.0005 28.2264 15.0005 26.5824H9.00049C9.00049 28.2264 10.3505 29.5714 12.0005 29.5714ZM21.0005 20.6044V13.1319C21.0005 8.54375 18.5555 4.70287 14.2505 3.68661V2.67035C14.2505 1.42991 13.2455 0.428589 12.0005 0.428589C10.7555 0.428589 9.75049 1.42991 9.75049 2.67035V3.68661C5.46049 4.70287 3.00049 8.52881 3.00049 13.1319V20.6044L0.000488281 23.5934V25.0879H24.0005V23.5934L21.0005 20.6044ZM18.0005 22.0989H6.00049V13.1319C6.00049 9.42551 8.26549 6.40661 12.0005 6.40661C15.7355 6.40661 18.0005 9.42551 18.0005 13.1319V22.0989Z" fill="#E4E4E4"/>
</svg>
