<svg width="29" height="29" viewBox="0 0 29 29" fill="none" xmlns="http://www.w3.org/2000/svg">
<path fill-rule="evenodd" clip-rule="evenodd" d="M14.8217 0.582055C13.3438 0.572289 11.9853 1.40683 11.3269 2.72688L10.7163 3.94817C10.4756 4.03752 10.2389 4.1354 10.0047 4.24087L8.71024 3.80938C7.31181 3.34258 5.75966 3.71267 4.72339 4.76572C3.70208 5.80373 3.35148 7.33191 3.81247 8.70967L4.24396 10.0016C4.13623 10.2375 4.03543 10.4758 3.94369 10.7182L2.72745 11.3264C1.40877 11.9841 0.571812 13.3413 0.582623 14.8186C0.593282 16.2752 1.42537 17.6039 2.72492 18.2529L3.94873 18.8686C4.03845 19.1093 4.136 19.3461 4.24144 19.5801L3.81247 20.8721C3.34613 22.2692 3.71504 23.82 4.76629 24.8564C5.80349 25.879 7.33177 26.2299 8.71024 25.7698L10.0022 25.3409C10.2377 25.4483 10.4766 25.5468 10.7188 25.6386L11.3269 26.8524C11.9853 28.1724 13.3438 29.0087 14.8217 28.9972C16.278 28.9874 17.6073 28.1531 18.256 26.8524L18.8641 25.6361C19.1078 25.5458 19.3487 25.4478 19.5858 25.3409L20.8726 25.7698C22.2511 26.2298 23.7794 25.8792 24.8166 24.8564C25.8685 23.8193 26.238 22.2672 25.7704 20.8696L25.3414 19.5776C25.4487 19.3427 25.5479 19.1049 25.6392 18.8635L26.8554 18.2529C28.156 17.6043 28.9896 16.2758 29.0003 14.8186C29.0111 13.3412 28.1741 11.9841 26.8554 11.3264L25.6342 10.7157C25.5444 10.4735 25.4472 10.2348 25.3414 9.99909L25.7704 8.70967V8.70715C26.2302 7.33002 25.8802 5.8031 24.8595 4.76572C23.8232 3.71247 22.2711 3.34272 20.8726 3.80938L19.5782 4.24087C19.3433 4.13393 19.1056 4.03443 18.8641 3.94312L18.256 2.72688C17.6073 1.42616 16.2781 0.593432 14.8217 0.582055ZM14.8015 3.16594C15.2874 3.1697 15.7264 3.44524 15.9446 3.88256L16.7647 5.52272C16.8417 5.67699 16.9488 5.81428 17.0796 5.92652C17.2105 6.03876 17.3625 6.12368 17.5267 6.17626C18.0135 6.33154 18.4862 6.52636 18.9398 6.76167C19.0929 6.84136 19.2604 6.88956 19.4325 6.90343C19.6045 6.9173 19.7776 6.89655 19.9415 6.84242L21.6877 6.26205H21.6902C22.1607 6.10482 22.6719 6.22785 23.0175 6.57747C23.3579 6.92367 23.4728 7.42863 23.3177 7.89212V7.89464L22.7399 9.63321C22.686 9.79568 22.665 9.96723 22.678 10.1379C22.691 10.3086 22.7378 10.475 22.8156 10.6274C23.048 11.082 23.2409 11.5558 23.3934 12.043C23.4454 12.2088 23.5303 12.3624 23.6431 12.4946C23.7558 12.6269 23.894 12.735 24.0495 12.8126L25.6998 13.6377C26.1436 13.8589 26.42 14.3063 26.4164 14.7984C26.4128 15.2833 26.1374 15.7233 25.6998 15.9415H25.6972L24.0571 16.7641C23.9033 16.8414 23.7665 16.9486 23.6547 17.0794C23.5429 17.2103 23.4584 17.3622 23.4061 17.5262C23.2499 18.013 23.0542 18.4857 22.8181 18.9392C22.7381 19.0927 22.6897 19.2606 22.6758 19.4332C22.662 19.6057 22.6829 19.7792 22.7374 19.9435L23.3177 21.6871C23.4751 22.1573 23.3556 22.6685 23.0049 23.0144C22.6592 23.3552 22.1539 23.472 21.6902 23.3172H21.6877L19.9491 22.7393C19.7863 22.6851 19.6143 22.6639 19.4431 22.6769C19.272 22.6899 19.1052 22.7369 18.9524 22.815C18.4972 23.0484 18.0249 23.2423 17.5368 23.3954C17.371 23.4474 17.2174 23.5323 17.0852 23.645C16.9529 23.7577 16.8448 23.896 16.7672 24.0515L15.9446 25.6967C15.7265 26.1342 15.2875 26.4095 14.8015 26.4133C14.3081 26.4172 13.8598 26.1408 13.6383 25.6967L12.8182 24.059C12.7412 23.9048 12.6341 23.7675 12.5033 23.6552C12.3724 23.543 12.2204 23.4581 12.0562 23.4055C11.5686 23.2492 11.0948 23.0539 10.6406 22.8176C10.4871 22.7375 10.3192 22.6891 10.1466 22.6753C9.97412 22.6614 9.80057 22.6823 9.6363 22.7368L7.89268 23.3172C7.429 23.472 6.92373 23.3562 6.57803 23.0144C6.22724 22.6687 6.1078 22.1574 6.26514 21.6871V21.6846L6.84298 19.946C6.89681 19.783 6.91761 19.6109 6.90418 19.4398C6.89075 19.2687 6.84335 19.1019 6.76476 18.9493C6.53169 18.4957 6.33775 18.0228 6.1844 17.5363C6.1327 17.3713 6.04844 17.2185 5.93662 17.0867C5.8248 16.955 5.68768 16.847 5.53338 16.7692L3.88565 15.9415H3.88313C3.44552 15.7232 3.17005 15.2836 3.1665 14.7984C3.1629 14.3063 3.43931 13.8591 3.88313 13.6377L5.52329 12.8176C5.67755 12.7406 5.81485 12.6336 5.92709 12.5027C6.03933 12.3718 6.12424 12.2198 6.17683 12.0556C6.33303 11.5688 6.52867 11.0961 6.76476 10.6425C6.84445 10.4894 6.89266 10.3219 6.90652 10.1498C6.92039 9.97777 6.89964 9.80468 6.84551 9.64078L6.26514 7.89464V7.89212C6.11008 7.42873 6.225 6.92342 6.56542 6.57747C6.91101 6.22638 7.42214 6.10531 7.89268 6.26205L9.63378 6.84242C9.79661 6.89663 9.96862 6.91785 10.1397 6.90485C10.3109 6.89186 10.4777 6.8449 10.6305 6.76672C11.0844 6.53429 11.5571 6.34142 12.0435 6.18887C12.2094 6.13689 12.363 6.05199 12.4952 5.93927C12.6274 5.82654 12.7356 5.6883 12.8132 5.53281L13.6383 3.88256C13.8598 3.43821 14.3081 3.16208 14.8015 3.16594ZM14.7965 8.33117C11.2442 8.33117 8.32923 11.2361 8.32922 14.7884C8.3292 18.3406 11.2442 21.2531 14.7965 21.2531C18.3488 21.2531 21.2512 18.3406 21.2511 14.7884C21.2511 11.2361 18.3488 8.33117 14.7965 8.33117ZM14.7965 10.9151C16.9523 10.9151 18.6673 12.6325 18.6673 14.7884C18.6673 16.9442 16.9524 18.6692 14.7965 18.6692C12.6406 18.6692 10.9131 16.9442 10.9131 14.7884C10.9131 12.6325 12.6406 10.9151 14.7965 10.9151Z" fill="#E4E4E4"/>
</svg>
